<?xml version="1.0" encoding="UTF-8"?>
<svg id="Capa_2" data-name="Capa 2" xmlns="http://www.w3.org/2000/svg" viewBox="0 0 333.83 132.23">
  <defs>
    <style>
      .cls-1 {
        font-family: Arial-BoldMT, Arial;
        font-size: 40px;
        font-weight: 700;
      }

      .cls-1, .cls-2 {
        fill: #fcd114;
      }
    </style>
  </defs>
  <g id="Capa_1-2" data-name="Capa 1">
    <g>
      <text class="cls-1" transform="translate(198.04 117.18) scale(.97 1)"><tspan x="0" y="0">ENTRO</tspan></text>
      <text class="cls-1" transform="translate(0 53.15)"><tspan x="0" y="0">LUBRI</tspan></text>
      <g id="C1">
        <path class="cls-2" d="M245.56,57.29c-.44-31.66-27.47-57.29-60.63-57.29s-60.63,26.06-60.63,58.09,27.2,58.09,60.63,58.09c.13,0,.27,0,.4-.01v-7c-.13.01-.27.01-.4.01-29.57,0-53.63-22.92-53.63-51.09S155.36,7,184.93,7s53.18,22.49,53.63,50.29c.01.17.01.33.01.5v.5h7v-.5c0-.17,0-.33-.01-.5Z"/>
      </g>
      <g id="C2">
        <path class="cls-2" d="M234.6,57.29c-.33-25.82-22.31-46.72-49.27-46.72s-49.29,21.23-49.29,47.32,22.11,47.33,49.29,47.33v-7c-23.32,0-42.29-18.09-42.29-40.33s18.97-40.32,42.29-40.32,41.94,17.77,42.27,39.72c.01.17.01.33.01.5v.5h6.99v-.02c.01-.12.01-.26.01-.38v-.1c0-.17,0-.33-.01-.5Z"/>
      </g>
      <g id="C3">
        <path class="cls-2" d="M222.66,57.29c-.27-19.66-17.09-35.57-37.73-35.57s-37.73,16.18-37.73,36.07,16.93,36.08,37.73,36.08c.13,0,.27,0,.4-.01v-7c-.13.01-.27.01-.4.01-16.94,0-30.73-13.04-30.73-29.08s13.79-29.07,30.73-29.07,30.45,12.77,30.73,28.57c.01.17.01.33.01.5s0,.33-.01.5h7c.01-.17.01-.33.01-.5s0-.33-.01-.5Z"/>
      </g>
      <text class="cls-1" transform="translate(163.61 71.98)"><tspan x="0" y="0">72</tspan></text>
      <g>
        <path class="cls-2" d="M215.67,57.79c0,.17,0,.33-.01.5h7c.01-.17.01-.33.01-.5h-7ZM215.67,57.79c0,.17,0,.33-.01.5h7c.01-.17.01-.33.01-.5h-7ZM215.67,57.79c0,.17,0,.33-.01.5h7c.01-.17.01-.33.01-.5h-7ZM215.67,57.79c0,.17,0,.33-.01.5h7c.01-.17.01-.33.01-.5h-7ZM215.67,57.79c0,.17,0,.33-.01.5h7c.01-.17.01-.33.01-.5h-7ZM238.57,57.79v.5h7v-.5h-7ZM227.61,57.79v.5h6.99v-.02c.01-.12.01-.26.01-.38v-.1h-7ZM215.67,57.79c0,.17,0,.33-.01.5h7c.01-.17.01-.33.01-.5h-7Z"/>
        <path class="cls-2" d="M215.67,57.79c0,.17,0,.33-.01.5h7c.01-.17.01-.33.01-.5h-7ZM215.67,57.79c0,.17,0,.33-.01.5h7c.01-.17.01-.33.01-.5h-7ZM215.67,57.79c0,.17,0,.33-.01.5h7c.01-.17.01-.33.01-.5h-7ZM215.67,57.79c0,.17,0,.33-.01.5h7c.01-.17.01-.33.01-.5h-7ZM215.67,57.79c0,.17,0,.33-.01.5h7c.01-.17.01-.33.01-.5h-7ZM215.67,57.79c0,.17,0,.33-.01.5h7c.01-.17.01-.33.01-.5h-7ZM215.67,57.79c0,.17,0,.33-.01.5h7c.01-.17.01-.33.01-.5h-7ZM245.56,57.29h-7c.01.17.01.33.01.5v.5h7v-.5c0-.17,0-.33-.01-.5ZM234.6,57.29h-7c.01.17.01.33.01.5v.5h6.99v-.02c.01-.12.01-.26.01-.38v-.1c0-.17,0-.33-.01-.5ZM222.66,57.29h-7c.01.17.01.33.01.5s0,.33-.01.5h7c.01-.17.01-.33.01-.5s0-.33-.01-.5Z"/>
      </g>
    </g>
  </g>
</svg>